<?xml version="1.0" encoding="iso-8859-1"?>
<!-- Generator: Adobe Illustrator 19.0.0, SVG Export Plug-In . SVG Version: 6.00 Build 0)  -->
<svg version="1.1" id="Layer_1" xmlns="http://www.w3.org/2000/svg" xmlns:xlink="http://www.w3.org/1999/xlink" x="0px" y="0px"
	 viewBox="0 0 512 512" style="enable-background:new 0 0 512 512;" xml:space="preserve">
<path style="fill:#70E5CF;" d="M416.258,420.742V512H95.754v-91.258c0-51.195,34.95-94.219,82.279-106.525
	c6.276,4.196,13.163,7.597,20.564,10.092h114.819c7.376-2.496,14.276-5.909,20.539-10.092c24.123,6.276,45.03,20.515,59.734,39.757
	C407.854,372.495,416.258,395.627,416.258,420.742z"/>
<path style="fill:#35D8B9;" d="M95.754,512v-91.258c0-51.195,34.95-94.219,82.279-106.525c2.043,1.366,4.158,2.639,6.327,3.833
	c-28.46,17.182-48.243,55.222-48.243,99.402v51.928v42.315L95.754,512z"/>
<g>
	<path style="fill:#F95428;" d="M214.781,385.841l-29.616,15.927l13.432-77.459l42.608,14.349c4.808,1.615,9.786,2.41,14.802,2.41
		v22.582L214.781,385.841z"/>
	<path style="fill:#F95428;" d="M313.416,324.309l13.407,77.459l-29.616-15.927l-41.201-22.191v-22.582
		c4.979,0,9.994-0.795,14.777-2.41l42.608-14.349L313.416,324.309L313.416,324.309z"/>
</g>
<g>
	<polygon style="fill:#E54728;" points="297.207,385.841 256.006,427.042 214.781,385.841 256.006,363.65 	"/>
	<rect x="249.284" y="329.422" style="fill:#E54728;" width="13.456" height="182.578"/>
</g>
<path style="fill:#F2F2F2;" d="M364.244,282.142c-6.691,14.141-17.138,26.338-30.289,35.133
	c-6.263,4.184-13.163,7.597-20.539,10.092h-0.024l-42.608,14.349c-4.783,1.615-9.799,2.41-14.777,2.41
	c-5.016,0-9.994-0.795-14.802-2.41l-42.608-14.349c-7.401-2.496-14.288-5.896-20.564-10.092
	c-23.72-15.842-38.62-42.754-38.62-72.273v-15.499l-13.077-36.454h75.686c49.923,0,94.745-30.656,112.837-77.202l79.992,80.787
	l-22.276,32.87v15.499C372.574,258.141,369.614,270.777,364.244,282.142z"/>
<path style="fill:#E6E6E6;" d="M259.349,341.717l-42.608-14.349c-7.401-2.496-14.288-5.896-20.564-10.092
	c-23.72-15.842-38.62-42.754-38.62-72.273v-15.499l0.073-36.454h-31.296l13.077,36.454v15.499c0,29.518,14.9,56.431,38.62,72.273
	c6.276,4.196,13.163,7.597,20.564,10.092l42.608,14.349c4.808,1.615,9.786,2.41,14.802,2.41c3.029,0,6.07-0.298,9.065-0.893
	C263.143,342.852,261.233,342.349,259.349,341.717z"/>
<path style="fill:#70E5CF;" d="M356.366,287.647h-83.233c-3.04,0-5.505-2.465-5.505-5.505s2.465-5.505,5.505-5.505h83.233
	c16.074,0,29.151-13.077,29.151-29.151v-19.393c0-3.04,2.465-5.505,5.505-5.505s5.505,2.465,5.505,5.505v19.393
	C396.527,269.631,378.51,287.647,356.366,287.647z"/>
<path style="fill:#808080;" d="M372.574,139.395v35.806l12.49,15.377l-12.49,6.055l-57.715-80.787
	c-18.093,46.547-62.914,77.202-112.837,77.202h-62.608v-53.654c0-53.801,43.623-97.436,97.436-97.436h38.289
	c2.263,0,4.514,0.073,6.74,0.232C332.548,45.654,372.574,87.857,372.574,139.395z"/>
<path style="fill:#666666;" d="M254.791,41.959h-17.942c-53.813,0-97.436,43.635-97.436,97.436v53.654h17.942v-53.654
	C157.356,85.594,200.978,41.959,254.791,41.959z"/>
<rect x="311.99" y="435.042" style="fill:#35D8B9;" width="59.942" height="13.456"/>
<path style="fill:#70E5CF;" d="M409.518,210.967c-4.053,0-7.34-3.286-7.34-7.34v-68.183c0-15.033-2.727-29.694-8.104-43.578
	c-8.703-22.479-23.794-41.683-43.646-55.534c-20.301-14.165-44.17-21.652-69.026-21.652h-50.816
	c-24.856,0-48.726,7.489-69.03,21.659c-19.853,13.855-34.94,33.058-43.63,55.535c-0.048,0.122-0.098,0.243-0.152,0.362
	c-5.279,13.788-7.954,28.323-7.954,43.207v68.183c0,4.054-3.287,7.34-7.34,7.34c-4.053,0-7.34-3.286-7.34-7.34v-68.182
	c0-16.831,3.056-33.271,9.081-48.862c0.051-0.13,0.104-0.258,0.161-0.385c9.769-25.046,26.626-46.441,48.771-61.895
	C175.934,8.403,202.709,0,230.586,0h50.816c27.875,0,54.65,8.4,77.428,24.294c22.252,15.527,39.174,37.06,48.934,62.271
	c6.035,15.58,9.095,32.025,9.095,48.878v68.183C416.858,207.681,413.572,210.967,409.518,210.967z"/>
<g>
	<path style="fill:#E54728;" d="M409.518,175.201v54.302c0,8.563-6.948,15.499-15.499,15.499h-5.945
		c-8.563,0-15.499-6.936-15.499-15.499v-54.302c0-8.563,6.936-15.499,15.499-15.499h5.945
		C402.57,159.702,409.518,166.638,409.518,175.201z"/>
	<path style="fill:#E54728;" d="M139.413,193.049v36.454c0,8.563-6.936,15.499-15.487,15.499h-5.957
		c-8.563,0-15.487-6.936-15.487-15.499v-51.33v-2.973c0-8.563,6.924-15.499,15.487-15.499h5.957c8.551,0,15.487,6.936,15.487,15.499
		V193.049z"/>
</g>
<g>
	<path style="fill:#F95428;" d="M409.518,175.201v54.302c0,8.563-6.948,15.499-15.499,15.499h-4.282v-85.301h4.282
		C402.57,159.702,409.518,166.638,409.518,175.201z"/>
	<path style="fill:#F95428;" d="M102.482,175.201v54.302c0,8.563,6.948,15.499,15.499,15.499h4.282v-85.301h-4.282
		C109.43,159.702,102.482,166.638,102.482,175.201z"/>
</g>
<g>
</g>
<g>
</g>
<g>
</g>
<g>
</g>
<g>
</g>
<g>
</g>
<g>
</g>
<g>
</g>
<g>
</g>
<g>
</g>
<g>
</g>
<g>
</g>
<g>
</g>
<g>
</g>
<g>
</g>
</svg>
